<?xml version="1.0" encoding="utf-8"?>
<!-- Generator: Adobe Illustrator 24.0.0, SVG Export Plug-In . SVG Version: 6.00 Build 0)  -->
<svg version="1.1" id="Layer_1" xmlns="http://www.w3.org/2000/svg" xmlns:xlink="http://www.w3.org/1999/xlink" x="0px" y="0px"
	 viewBox="0 0 2000 2000" style="enable-background:new 0 0 2000 2000;" xml:space="preserve">
<style type="text/css">
	.st0{fill:#FFFFFF;}
</style>
<path id="_x36_:30" class="st0" d="M369.3,1593c399.4,0,798.9,0,1198.3,0c25.5-1,182.4-9.6,297.2-143.8
	c114.9-134.4,98.9-291,95.9-316.4c-1.9-44.5-13-167.8-105.5-278c-145.5-173.4-366.6-164.5-393.1-163
	c-12.6-48.6-45.4-146.6-134.2-230.1c-164-154.2-380-128.9-412.2-124.6c-40.3-1.7-225.7-5.1-383.5,134.2
	C344,637.6,348.9,871,350.1,902.8C321,905.3,232,916.9,158.4,989c-115.1,112.9-89,272.7-86.3,287.6c5,34.7,21.5,115.8,86.3,191.7
	C237.3,1560.8,336.8,1586.2,369.3,1593z"/>
</svg>
