<?xml version="1.0" encoding="utf-8"?>
<!-- Generator: Adobe Illustrator 24.0.0, SVG Export Plug-In . SVG Version: 6.00 Build 0)  -->
<svg version="1.1" id="Layer_1" xmlns="http://www.w3.org/2000/svg" xmlns:xlink="http://www.w3.org/1999/xlink" x="0px" y="0px"
	 viewBox="0 0 2000 2000" style="enable-background:new 0 0 2000 2000;" xml:space="preserve">
<style type="text/css">
	.st0{display:none;}
	.st1{fill:#FFFFFF;}
</style>
<rect x="-104" y="-138" class="st0" width="2250" height="2291"/>
<g id="logo_tuesday">
	<path id="logo_today_2_" class="st1" d="M359.1,1618c249.1,0,498.2,0,747.3,0c15.9-0.6,113.8-6,185.3-89.7
		c71.7-83.8,61.7-181.5,59.8-197.3c-1.2-27.7-8.1-104.6-65.8-173.4c-90.7-108.1-228.6-102.6-245.1-101.6
		c-7.8-30.3-28.3-91.4-83.7-143.5c-102.2-96.2-237-80.4-257.1-77.7c-25.2-1.1-140.7-3.2-239.1,83.7
		c-117.4,103.6-114.3,249.2-113.6,269c-18.1,1.6-73.7,8.8-119.6,53.8c-71.8,70.4-55.5,170.1-53.8,179.3
		c3.1,21.6,13.4,72.2,53.8,119.6C276.7,1598,338.8,1613.7,359.1,1618z"/>
	<g>
		<path class="st1" d="M1590.4,1001.4c0,125.4-77.6,232.7-187.6,276.2c-1.3-30.5-9.7-108.3-68-177.6
			c-94-112.2-237-106.2-254.1-105.3c-6.5-25.4-21.7-71.7-57.6-117.2c46.8-102.3,150.1-173.3,270.1-173.3
			C1457.4,704.2,1590.4,837.2,1590.4,1001.4z"/>
	</g>
	<path class="st1" d="M1353.1,632.6h-102.8c-1.3,0-2.3-1-2.3-2.3V384c0-1.3,1-2.3,2.3-2.3h102.8c1.3,0,2.3,1,2.3,2.3v246.2
		C1355.4,631.5,1354.3,632.6,1353.1,632.6z"/>
	<path class="st1" d="M1086.3,684.9l-72.7,72.7c-0.9,0.9-2.4,0.9-3.3,0L836.2,583.5c-0.9-0.9-0.9-2.4,0-3.3l72.7-72.7
		c0.9-0.9,2.4-0.9,3.3,0l174.1,174.1C1087.2,682.5,1087.2,684,1086.3,684.9z"/>
	<path class="st1" d="M1600.8,768.9l-77.9-67.2c-1-0.8-1.1-2.3-0.2-3.3l160.9-186.4c0.8-1,2.3-1.1,3.3-0.2l77.9,67.2
		c1,0.8,1.1,2.3,0.2,3.3l-160.9,186.4C1603.3,769.7,1601.8,769.8,1600.8,768.9z"/>
	<path class="st1" d="M1663.7,1032.7l-6.9-102.6c-0.1-1.3,0.9-2.4,2.2-2.5l245.6-16.5c1.3-0.1,2.4,0.9,2.5,2.2l6.9,102.6
		c0.1,1.3-0.9,2.4-2.2,2.5l-245.6,16.5C1664.9,1034.9,1663.8,1034,1663.7,1032.7z"/>
	<path class="st1" d="M1531.4,1288.3l67.2-77.8c0.8-1,2.3-1.1,3.3-0.2l186.3,160.9c1,0.8,1.1,2.3,0.2,3.3l-67.2,77.8
		c-0.8,1-2.3,1.1-3.3,0.2l-186.3-160.9C1530.7,1290.7,1530.6,1289.3,1531.4,1288.3z"/>
</g>
</svg>
