<?xml version="1.0" encoding="utf-8"?>
<!-- Generator: Adobe Illustrator 24.0.0, SVG Export Plug-In . SVG Version: 6.00 Build 0)  -->
<svg version="1.1" id="Layer_1" xmlns="http://www.w3.org/2000/svg" xmlns:xlink="http://www.w3.org/1999/xlink" x="0px" y="0px"
	 viewBox="0 0 2000 2000" style="enable-background:new 0 0 2000 2000;" xml:space="preserve">
<style type="text/css">
	.st0{fill:#FFFFFF;}
</style>
<g id="logo_thursday">
	<path id="logo_today_3_" class="st0" d="M280.9,1510.7c268.2,0,536.4,0,804.6,0c17.1-0.7,122.5-6.4,199.5-96.5
		c77.2-90.2,66.4-195.4,64.4-212.4c-1.2-29.8-8.7-112.7-70.8-186.7c-97.7-116.4-246.1-110.4-263.9-109.4
		c-8.4-32.6-30.5-98.4-90.1-154.5c-110.1-103.6-255.2-86.6-276.8-83.7c-27.1-1.1-151.5-3.4-257.5,90.1
		C263.9,869.2,267.2,1025.9,268,1047.2c-19.5,1.7-79.3,9.5-128.7,57.9C62,1181,79.5,1288.3,81.3,1298.3
		c3.4,23.3,14.4,77.7,57.9,128.7C192.2,1489.1,259.1,1506.1,280.9,1510.7z"/>
	<g>
		<path class="st0" d="M1606.7,846.8c0,135-83.6,250.6-202,297.4c-1.4-32.8-10.4-116.6-73.2-191.2
			c-101.2-120.8-255.2-114.4-273.6-113.4c-7-27.4-23.4-77.2-62-126.2c50.4-110.2,161.6-186.6,290.8-186.6
			C1463.5,526.8,1606.7,670,1606.7,846.8z"/>
	</g>
	<path class="st0" d="M1351.3,449.6h-111.1c-1.3,0-2.3-1-2.3-2.3V181.9c0-1.3,1-2.3,2.3-2.3h111.1c1.3,0,2.3,1,2.3,2.3v265.4
		C1353.6,448.6,1352.6,449.6,1351.3,449.6z"/>
	<path class="st0" d="M1064,505.8l-78.5,78.5c-0.9,0.9-2.4,0.9-3.3,0L794.4,396.7c-0.9-0.9-0.9-2.4,0-3.3l78.5-78.5
		c0.9-0.9,2.4-0.9,3.3,0L1064,502.5C1064.9,503.5,1064.9,504.9,1064,505.8z"/>
	<path class="st0" d="M1618,596.6l-84-72.5c-1-0.9-1.1-2.4-0.2-3.3l173.4-200.9c0.9-1,2.4-1.1,3.3-0.2l84,72.5
		c1,0.9,1.1,2.4,0.2,3.3l-173.4,200.9C1620.5,597.3,1619,597.4,1618,596.6z"/>
	<path class="st0" d="M1685.6,880.6l-7.4-110.8c-0.1-1.3,0.9-2.4,2.2-2.5l264.8-17.7c1.3-0.1,2.4,0.9,2.5,2.2l7.4,110.8
		c0.1,1.3-0.9,2.4-2.2,2.5l-264.8,17.7C1686.8,882.9,1685.7,881.9,1685.6,880.6z"/>
	<path class="st0" d="M1543.1,1155.8l72.6-84.1c0.8-1,2.3-1.1,3.3-0.2l200.9,173.4c1,0.8,1.1,2.3,0.2,3.3l-72.6,84.1
		c-0.8,1-2.3,1.1-3.3,0.2l-200.9-173.4C1542.3,1158.3,1542.2,1156.8,1543.1,1155.8z"/>
	<path class="st0" d="M281.6,1818l-84.1-72.6c-1-0.8-1.1-2.3-0.2-3.3l173.4-200.9c0.8-1,2.3-1.1,3.3-0.2l84.1,72.6
		c1,0.8,1.1,2.3,0.2,3.3l-173.4,200.9C284.1,1818.8,282.6,1818.9,281.6,1818z"/>
	<path class="st0" d="M507.1,1819.6L423,1747c-1-0.8-1.1-2.3-0.2-3.3l173.4-200.9c0.8-1,2.3-1.1,3.3-0.2l84.1,72.6
		c1,0.8,1.1,2.3,0.2,3.3l-173.4,200.9C509.5,1820.3,508,1820.4,507.1,1819.6z"/>
	<path class="st0" d="M738.6,1819.6l-84.1-72.6c-1-0.8-1.1-2.3-0.2-3.3l173.4-200.9c0.8-1,2.3-1.1,3.3-0.2l84.1,72.6
		c1,0.8,1.1,2.3,0.2,3.3l-173.4,200.9C741,1820.3,739.5,1820.4,738.6,1819.6z"/>
	<path class="st0" d="M970.1,1819.6L886,1747c-1-0.8-1.1-2.3-0.2-3.3l173.4-200.9c0.8-1,2.3-1.1,3.3-0.2l84.1,72.6
		c1,0.8,1.1,2.3,0.2,3.3l-173.4,200.9C972.5,1820.3,971,1820.4,970.1,1819.6z"/>
</g>
</svg>
