<?xml version="1.0" encoding="utf-8"?>
<!-- Generator: Adobe Illustrator 24.0.0, SVG Export Plug-In . SVG Version: 6.00 Build 0)  -->
<svg version="1.1" id="Layer_1" xmlns="http://www.w3.org/2000/svg" xmlns:xlink="http://www.w3.org/1999/xlink" x="0px" y="0px"
	 viewBox="0 0 2000 2000" style="enable-background:new 0 0 2000 2000;" xml:space="preserve">
<style type="text/css">
	.st0{fill:#FFFFFF;}
</style>
<g id="logo_friday">
	<path class="st0" d="M1059.7,484.1c-10.4-1.3-20.2-2-29.5-2.4c-38.4-1.7-66.6,1.7-75.9,2.8c-32.8-1.3-184-3.9-312.7,109.6
		C487.9,729.7,491.8,920,492.9,946.1c-23.6,2.2-96.6,11.5-156.7,70.3c-93.7,92.2-72.5,222.6-70.3,234.8c2,13.5,6.1,35.4,15.6,61.4
		c-33.8-12.4-80.1-36.5-119.3-82.5c-4.1-4.8-7.8-9.5-11.3-14.3c-39.5-52.9-50.1-106.3-53.8-130.4c-2-11.3-21.7-131.9,65.1-217.2
		c55.5-54.5,123-63.1,144.9-65.1c-0.9-24.1-4.6-200.3,137.6-325.9c119.1-105,259.1-102.6,289.4-101.3c8.7-1.1,34.7-4.3,70.3-2.6
		c64.7,3,161.2,21.7,241.1,96.8C1050.6,474.6,1055.1,479.3,1059.7,484.1z"/>
	<path id="logo_today_6_" class="st0" d="M598.8,1628c342.9,0,685.8,0,1028.7,0c21.9-0.8,156.6-8.2,255.1-123.4
		c98.7-115.4,84.9-249.8,82.3-271.6c-1.6-38.2-11.2-144.1-90.5-238.7c-124.9-148.9-314.7-141.2-337.4-139.9
		c-10.8-41.7-39-125.8-115.2-197.5c-140.7-132.4-326.2-110.7-353.9-107c-34.6-1.5-193.7-4.4-329.2,115.2
		c-161.6,142.7-157.4,343-156.4,370.3c-25,2.2-101.4,12.1-164.6,74.1c-98.8,96.9-76.4,234.1-74.1,246.9
		c4.3,29.8,18.4,99.4,74.1,164.6C485.4,1600.4,570.9,1622.1,598.8,1628z"/>
</g>
</svg>
