<?xml version="1.0" encoding="utf-8"?>
<!-- Generator: Adobe Illustrator 24.0.0, SVG Export Plug-In . SVG Version: 6.00 Build 0)  -->
<svg version="1.1" id="Layer_1" xmlns="http://www.w3.org/2000/svg" xmlns:xlink="http://www.w3.org/1999/xlink" x="0px" y="0px"
	 viewBox="0 0 2000 2000" style="enable-background:new 0 0 2000 2000;" xml:space="preserve">
<style type="text/css">
	.st0{fill:#FFFFFF;}
</style>
<path class="st0" d="M1481.4,805V271.9H973.7v279.3H796V271.9H643.7v279.3H491.3V271.9H339v279.3H161.3V1719H1913V805H1481.4z
	 M542.1,1515.9H339v-228.5h203.1V1515.9z M542.1,1211.2H339V982.8h203.1V1211.2z M542.1,906.6H339V678.1h203.1V906.6z M897.5,1515.9
	H694.4v-228.5h203.1V1515.9z M897.5,1211.2H694.4V982.8h203.1V1211.2z M897.5,906.6H694.4V678.1h203.1V906.6z M1329.1,1236.6H1126
	v-228.5h203.1V1236.6z M1329.1,932H1126V703.5h203.1V932z M1329.1,627.3H1126V398.9h203.1V627.3z M1786.1,1515.9H1583v-228.5h203.1
	V1515.9z M1786.1,1211.2H1583V982.8h203.1V1211.2z"/>
</svg>
