<?xml version="1.0" encoding="utf-8"?>
<!-- Generator: Adobe Illustrator 24.0.0, SVG Export Plug-In . SVG Version: 6.00 Build 0)  -->
<svg version="1.1" id="Layer_1" xmlns="http://www.w3.org/2000/svg" xmlns:xlink="http://www.w3.org/1999/xlink" x="0px" y="0px"
	 viewBox="0 0 2000 2000" style="enable-background:new 0 0 2000 2000;" xml:space="preserve">
<style type="text/css">
	.st0{fill:#FFFFFF;}
</style>
<path id="setting" class="st0" d="M1811.8,1219.9l-166.4-96.1c7.3-38.8,11-78.7,11-119.6c0-30.8-2.2-61.2-6.3-90.9l176-101.6
	c45.8-26.5,61.6-85.1,35.1-130.9L1715.2,428c-26.5-45.8-85.1-61.6-130.9-35.1l-176,101.6c-51.5-40.3-109.1-73-171.4-96.4V221.7
	c0-53-42.9-95.9-95.9-95.9H849c-53,0-95.9,42.9-95.9,95.9v187.9c-60.5,26.1-116.3,61.1-165.5,103.5l-171.2-98.9
	c-45.8-26.5-104.5-10.7-130.9,35.1L139.5,702.1C113,748,128.7,806.6,174.6,833.1l190.3,109.9c-1.9,20.2-2.9,40.6-2.9,61.3
	c0,30.8,2.1,61.1,6.3,90.7l-179.5,103.6c-45.8,26.5-61.6,85.1-35.1,130.9l145.9,252.8c26.5,45.8,85.1,61.6,130.9,35.1l179.5-103.6
	c43.5,34.1,91.6,62.8,143.1,85v234.1c0,53,42.9,95.9,95.9,95.9h291.9c53,0,95.9-42.9,95.9-95.9v-222.7
	c52.9-19.9,102.5-46.4,147.7-78.7l185.5,107.1c45.8,26.5,104.5,10.7,130.9-35.1l145.9-252.8
	C1873.4,1305,1857.7,1246.3,1811.8,1219.9z M1003.2,1311.5c-3.4,0.1-6.9,0.2-10.4,0.2c-10.2,0-20.2-0.5-30.2-1.5
	c-84.7-8.3-159.3-51-209.5-113.9c-11.7-14.7-22.1-30.4-31-47c-23-43-36-92.1-36-144.2c0-36.5,6.4-71.6,18.1-104.1
	c11.5-31.8,28.1-61.2,48.8-87.2c42.2-52.8,101.5-91.4,169.5-107.3c22.5-5.3,46.1-8.1,70.2-8.1c18.5,0,36.5,1.6,54.1,4.8
	c77.1,13.7,144.2,56.2,189.9,116c22,28.9,39.1,61.8,49.8,97.4c8.5,28,13,57.7,13,88.4c0,45.1-9.7,87.9-27.2,126.4
	c-9.6,21.2-21.6,41.1-35.5,59.4C1182.7,1261.7,1098.5,1308.4,1003.2,1311.5z"/>
</svg>
