<?xml version="1.0" encoding="utf-8"?>
<!-- Generator: Adobe Illustrator 24.0.0, SVG Export Plug-In . SVG Version: 6.00 Build 0)  -->
<svg version="1.1" id="Layer_1" xmlns="http://www.w3.org/2000/svg" xmlns:xlink="http://www.w3.org/1999/xlink" x="0px" y="0px"
	 viewBox="0 0 2000 2000" style="enable-background:new 0 0 2000 2000;" xml:space="preserve">
<style type="text/css">
	.st0{fill:#FFFFFF;}
</style>
<g id="matahari_naik">
	<path class="st0" d="M1961,1596.6v167.7H39.8v-167.7h629c-50.3-68.2-80.1-152.5-80.1-244c0-209.2,156.1-382.1,358.3-408.2
		c17.4-2.3,35.2-3.5,53.4-3.5s36,1.2,53.4,3.5c202.2,26.1,358.3,199,358.3,408.2c0,91.5-29.7,175.8-80.1,244H1961z"/>
	<path class="st0" d="M459.1,1360.3c0,15.4,0.9,30.8,2.6,45.7H159.8c-20,0-36.1-16.2-36.1-36.1v-34.5c0-20,16.2-36.1,36.1-36.1
		h303.9C460.6,1319.1,459.1,1339.5,459.1,1360.3z"/>
	<path class="st0" d="M1531.1,1357.8c0.2-15.4-0.5-30.8-1.9-45.8l301.9,4.4c20,0.3,35.9,16.7,35.6,36.7l-0.5,34.5
		c-0.3,20-16.7,35.9-36.7,35.6l-303.9-4.4C1529,1399,1530.8,1378.6,1531.1,1357.8z"/>
	<path class="st0" d="M1387.2,1005.5c-10.8-11-22.3-21.3-33.9-30.8l215.2-211.8c14.2-14,37.1-13.8,51.1,0.4l24.2,24.6
		c14,14.2,13.8,37.1-0.4,51.1l-216.6,213.2C1415,1035.9,1401.7,1020.2,1387.2,1005.5z"/>
	<path class="st0" d="M579.8,1006.9c-10.7,11.1-20.6,22.9-29.8,34.8L332,832.9c-14.4-13.8-14.9-36.7-1.1-51.1l23.8-24.9
		c13.8-14.4,36.7-14.9,51.1-1.1L625.3,966C609.4,978.2,594.1,991.9,579.8,1006.9z"/>
	<path class="st0" d="M1331.1,570.7l-75.5,75.5l-201.9-201.9v393.4c-17.4-2.3-35.2-3.5-53.4-3.5s-36,1.2-53.4,3.5V437L750.8,633.2
		l-75.5-75.5l321.4-321.4l11,10.8l46,46l18.4,18.6L1331.1,570.7z"/>
</g>
</svg>
