<?xml version="1.0" encoding="utf-8"?>
<!-- Generator: Adobe Illustrator 24.0.0, SVG Export Plug-In . SVG Version: 6.00 Build 0)  -->
<svg version="1.1" id="Layer_1" xmlns="http://www.w3.org/2000/svg" xmlns:xlink="http://www.w3.org/1999/xlink" x="0px" y="0px"
	 viewBox="0 0 2000 2000" style="enable-background:new 0 0 2000 2000;" xml:space="preserve">
<style type="text/css">
	.st0{fill:#FFFFFF;}
</style>
<g id="matahari_terbenam">
	<path class="st0" d="M1933,1666.1v163H66.3v-163h611.1c-48.9-66.2-77.8-148.2-77.8-237c0-203.3,151.7-371.3,348.2-396.6
		c16.9-2.2,34.2-3.4,51.9-3.4s35,1.2,51.9,3.4c196.5,25.3,348.2,193.3,348.2,396.6c0,88.9-28.9,170.8-77.8,237H1933z"/>
	<path class="st0" d="M473.7,1436.4c0,15,0.9,29.9,2.5,44.4H182.9c-19.4,0-35.1-15.7-35.1-35.1v-33.5c0-19.4,15.7-35.1,35.1-35.1
		h295.3C475.2,1396.4,473.7,1416.3,473.7,1436.4z"/>
	<path class="st0" d="M1515.3,1434.1c0.2-15-0.5-29.9-1.9-44.5l293.3,4.3c19.4,0.3,34.9,16.2,34.6,35.6l-0.5,33.5
		c-0.3,19.4-16.2,34.9-35.6,34.6l-295.2-4.3C1513.3,1474,1515,1454.2,1515.3,1434.1z"/>
	<path class="st0" d="M1375.4,1091.7c-10.5-10.7-21.6-20.7-33-29.9L1551.5,856c13.8-13.6,36-13.4,49.7,0.4l23.5,23.9
		c13.6,13.8,13.4,36-0.4,49.7L1413.8,1137C1402.4,1121.2,1389.6,1106.1,1375.4,1091.7z"/>
	<path class="st0" d="M591,1093.1c-10.4,10.8-20.1,22.2-28.9,33.8L350.2,924c-14-13.4-14.5-35.6-1.1-49.6l23.2-24.2
		c13.4-14,35.6-14.5,49.6-1.1l213.2,204.3C619.7,1065.2,604.9,1078.5,591,1093.1z"/>
	<path class="st0" d="M668.7,606.3l72.8-73.9L939.2,727l-3-382.2c16.9,2.1,34.2,3.1,51.9,3c17.6-0.1,35-1.5,51.8-3.8l3.1,389.3
		l189.2-192.2l73.9,72.8L996.2,928.6l-10.7-10.4l-45.1-44.4l-18.1-17.9L668.7,606.3z"/>
</g>
</svg>
