<?xml version="1.0" encoding="utf-8"?>
<!-- Generator: Adobe Illustrator 24.0.0, SVG Export Plug-In . SVG Version: 6.00 Build 0)  -->
<svg version="1.1" id="Layer_1" xmlns="http://www.w3.org/2000/svg" xmlns:xlink="http://www.w3.org/1999/xlink" x="0px" y="0px"
	 viewBox="0 0 1080 2366" style="enable-background:new 0 0 1080 2366;" xml:space="preserve">
<style type="text/css">
	.st0{fill:url(#SVGID_1_);}
	.st1{fill:#9F4184;}
	.st2{fill:#5C2F74;}
	.st3{fill:#1B1C50;}
	.st4{fill:#39447A;}
	.st5{fill:#994485;}
	.st6{fill:#A68967;}
	.st7{fill:#212260;}
	.st8{fill:#00073D;}
	.st9{fill:#004D7C;}
	.st10{fill:#018A9A;}
	.st11{fill:#00003C;}
	.st12{fill:#00003B;}
	.st13{fill:#00205C;}
	.st14{fill:#00205D;}
	.st15{fill:#008696;}
	.st16{display:none;fill:#00205D;}
	.st17{fill:#000038;}
	.st18{fill:#071E5B;}
	.st19{display:none;}
	.st20{display:inline;}
	.st21{fill:#FFFFFF;}
	.st22{display:none;fill:#FFFFFF;}
	.st23{display:none;fill:#3A464B;}
</style>
<linearGradient id="SVGID_1_" gradientUnits="userSpaceOnUse" x1="531.5356" y1="-22" x2="531.5356" y2="1307.1406">
	<stop  offset="4.328692e-02" style="stop-color:#7F47DD"/>
	<stop  offset="0.2169" style="stop-color:#8149DA"/>
	<stop  offset="0.3556" style="stop-color:#874ED0"/>
	<stop  offset="0.4822" style="stop-color:#9257BF"/>
	<stop  offset="0.6016" style="stop-color:#A163A7"/>
	<stop  offset="0.7161" style="stop-color:#B47389"/>
	<stop  offset="0.8267" style="stop-color:#CB8663"/>
	<stop  offset="0.9323" style="stop-color:#E79D37"/>
	<stop  offset="1" style="stop-color:#FBAE17"/>
	<stop  offset="1" style="stop-color:#FBAE17"/>
</linearGradient>
<polygon class="st0" points="-27.7,1307.1 -27.7,-22 1090.7,-22 1090.7,1307.1 "/>
<path class="st1" d="M-27.7,1149.1c14.4-15.7,35.2-34.9,63.5-51.7c49.4-29.3,96.6-36.7,124-38.8c18.5-0.3,48.8,1.6,82.3,15.9
	c20.5,8.8,36.4,19.6,47.6,28.8c32.7-31.6,66.4-63.5,101.2-95.4c59.9-55.1,119.2-107,177.6-156.1c14.3-12,54.7-42.6,115.1-47.7
	c50.9-4.4,89.9,11.6,107.1,19.9c62.2,23.8,102.3,78.1,101.2,134.2c-0.9,43.1-25.9,73.7-35.7,84.5
	C561.6,1148.4,267,1254.1-27.7,1359.8C-27.7,1289.6-27.7,1219.3-27.7,1149.1z"/>
<path class="st2" d="M-27.6,1359.9c24.1-26.5,60.7-65.1,107.4-109.5c112.5-106.7,168.8-160.1,251-186.5
	c40.7-13.1,116.8-29.2,223.9-1c78.6,3.4,157.3,6.8,235.9,10.1C517.1,1218,243.7,1363-29.6,1508C-29,1458.6-28.3,1409.3-27.6,1359.9z
	"/>
<g id="rumah_1_">
	<path class="st3" d="M439.7,1127.1c-0.7-62.8-1.4-125.6-2.1-188.4c0.4-6.3,2.8-37.7,29.3-61.8c23.4-21.1,50.3-22.8,57.6-23
		c0.3,26.5,0.7,53,1,79.6c10.1,0,20.2,0,30.4,0c0-26.2,0-52.3,0-78.5c5.7,0.4,41.6,3.4,66,34.5c20.3,26,19.3,54.5,18.8,61.8
		c63.9,0.7,127.7,1.4,191.6,2.1c-7.7,50.9-15.4,101.9-23,152.8C686,1113.1,562.9,1120.1,439.7,1127.1z"/>
	<rect x="503.2" y="847.6" class="st4" width="22.9" height="85.7"/>
	<rect x="543" y="847.6" class="st4" width="22.9" height="85.7"/>
	<rect x="657.5" y="985" class="st5" width="25.6" height="42.2"/>
	<rect x="531" y="985" class="st5" width="25.6" height="42.2"/>
	<rect x="592.9" y="985" class="st6" width="25.6" height="42.2"/>
</g>
<path class="st7" d="M779.6,1037.7c-61.3,9-127.2,21.5-196.8,38.8c-44.8,11.1-87.3,23.2-127.2,35.8c-28.7,9.4-58.8,21.7-89.5,37.8
	c-163.7,85.8-248.2,229.5-287.3,312.2c181.6,8.9,363.2,17.9,544.8,26.8C675.5,1338.6,727.5,1188.2,779.6,1037.7z"/>
<g id="pokok_line_belakang_1_">
	<path class="st8" d="M163.5,1558.5c17.9-78.5,35.9-157,53.8-235.5c14.9,53.1,29.8,106.3,44.7,159.4
		C229.1,1507.8,196.3,1533.1,163.5,1558.5z"/>
	<path class="st8" d="M428,1334.5c17.9-78.5,35.9-157,53.8-235.5c14.9,53.1,29.8,106.3,44.7,159.4
		C493.6,1283.8,460.8,1309.2,428,1334.5z"/>
	<path class="st8" d="M477.9,1285c21-92,42.1-184.1,63.1-276.1c17.5,62.3,34.9,124.6,52.4,186.9
		C554.8,1225.5,516.3,1255.3,477.9,1285z"/>
	<path class="st8" d="M119.2,1606c17.9-78.5,35.9-157,53.8-235.5c14.9,53.1,29.8,106.3,44.7,159.4
		C184.8,1555.3,152,1580.6,119.2,1606z"/>
</g>
<path class="st9" d="M-27.7,1484.1c96.2-36.9,169-56.4,219.7-67.6c28.1-6.2,76.6-15.8,132.2-47.7c27.5-15.8,48.2-32.1,61.6-43.7
	c19.9-31.5,52.8-75.5,103.4-117.3c52-42.9,102.9-67,138.2-80.5c34-22.2,72.5-51.5,111.3-89.5C806,972,849,904.5,876,852.8
	c4.3,273.7,8.6,547.4,12.9,821.1c-305.9,65.3-611.7,130.6-917.6,195.8C-28.3,1741.2-28,1612.7-27.7,1484.1z"/>
<path class="st10" d="M804.4,1152.1c-122.9,30.5-182.8,76.1-214.7,113.3c-11,12.8-36.7,45.5-79.5,88.5c-31.9,32-58.9,55.2-67.6,62.6
	c-36.3,30.9-42.6,31.8-75.6,59.6c-31,26.2-26.6,26.3-75.6,71.6c-61.9,57.2-63.7,52.3-96.4,82.5c0,0-25.8,23.9-53.7,37.8
	c-0.2,0.1-0.4,0.2-0.4,0.2c-0.1,0-0.3,0.1-0.3,0.2c-10.2,5-42.8,21.4-77.8,45.4c-42.4,29-74.8,59.8-90.5,75.6
	c24.2,24,64.2,56.7,121.3,76.5c139.6,48.6,265-19.6,288.3-32.8c136.9-190.2,273.7-380.4,410.6-570.6
	C796.5,1225.6,800.4,1188.8,804.4,1152.1z"/>
<path class="st10" d="M790.5,1108.3c-82,61.6-144.9,115-186.9,152.1c-31,27.3-33.1,30.4-114.3,104.4c-86.7,79-130.8,119-165,147.1
	c-80.3,65.8-121.7,99.2-180.9,125.3c-68.6,30.1-130.8,38.9-171,41.8c0,76.2,0,152.4,0,228.6C224.2,1726,476,1544.4,727.9,1362.8
	C748.8,1278,769.6,1193.1,790.5,1108.3z"/>
<g id="Pokok_line_depan_1_">
	<path class="st11" d="M363.2,1210.9c-36.5,111.3-62.9,192.6-69,211.2c-0.8,2.5-5.8,17.4,0,22.3c0.5,0.4,1.3,1,8.1,3
		c4.6,1.4,8.5,2.4,11.2,3c-3,18.3-6.1,36.5-9.1,54.8c0.1,1.1,0.7,8.6,7.1,13.2c3.6,2.6,7.4,3,9.1,3c9.5,0,18.9,0,28.4,0
		c0,31.1,0,62.3,0,93.4c8.8-1.4,17.6-2.7,26.4-4.1c0.3-29.8,0.7-59.6,1-89.3c10.8,0,21.7,0,32.5,0c0.9,0,6.3-0.4,10.2-5.1
		c4-4.8,3.2-10.3,3-11.2c-4.1-17.3-8.1-34.5-12.2-51.8c7.8-2,13.9-4.3,18.3-6.1c3.2-1.3,4.9-2.2,6.1-4.1c3.3-5.3-1.1-13.4-2-15.2
		C426.6,1416.8,401.1,1335.6,363.2,1210.9z"/>
	<path class="st12" d="M120.2,1477.6c-27.7,84.5-47.7,146.2-52.4,160.3c-0.6,1.9-4.4,13.2,0,17c0.4,0.3,1,0.8,6.2,2.3
		c3.5,1.1,6.4,1.8,8.5,2.3c-2.3,13.9-4.6,27.7-6.9,41.6c0.1,0.9,0.5,6.6,5.4,10c2.8,2,5.6,2.3,6.9,2.3c7.2,0,14.4,0,21.6,0
		c0,23.6,0,47.3,0,70.9c6.7-1,13.4-2.1,20-3.1c0.3-22.6,0.5-45.2,0.8-67.8c8.2,0,16.4,0,24.7,0c0.7,0,4.8-0.3,7.7-3.9
		c3-3.6,2.4-7.8,2.3-8.5c-3.1-13.1-6.2-26.2-9.2-39.3c5.9-1.5,10.6-3.2,13.9-4.6c2.4-1,3.7-1.7,4.6-3.1c2.5-4-0.9-10.2-1.5-11.6
		C168.3,1633.9,149,1572.3,120.2,1477.6z"/>
	<path class="st13" d="M202.8,1760.1c17.9-78.5,35.9-157,53.8-235.5c14.9,53.1,29.8,106.3,44.7,159.4
		C268.5,1709.4,235.7,1734.7,202.8,1760.1z"/>
	<path class="st13" d="M450.5,1517.3c17.9-78.5,35.9-157,53.8-235.5c14.9,53.1,29.8,106.3,44.7,159.4
		C516.1,1466.5,483.3,1491.9,450.5,1517.3z"/>
	<path class="st8" d="M500.3,1467.8c21-92,42.1-184.1,63.1-276.1c17.5,62.3,34.9,124.6,52.4,186.9
		C577.3,1408.3,538.8,1438,500.3,1467.8z"/>
	<path class="st11" d="M701.3,1056.6c-36.5,111.3-62.9,192.6-69,211.2c-0.8,2.5-5.8,17.4,0,22.3c0.5,0.4,1.3,1,8.1,3
		c4.6,1.4,8.5,2.4,11.2,3c-3,18.3-6.1,36.5-9.1,54.8c0.1,1.1,0.7,8.6,7.1,13.2c3.6,2.6,7.4,3,9.1,3c9.5,0,18.9,0,28.4,0
		c0,31.1,0,62.3,0,93.4c8.8-1.4,17.6-2.7,26.4-4.1c0.3-29.8,0.7-59.6,1-89.3c10.8,0,21.7,0,32.5,0c0.9,0,6.3-0.4,10.2-5.1
		c4-4.8,3.2-10.3,3-11.2c-4.1-17.3-8.1-34.5-12.2-51.8c7.8-2,13.9-4.3,18.3-6.1c3.2-1.3,4.9-2.2,6.1-4.1c3.3-5.3-1.1-13.4-2-15.2
		C764.6,1262.5,739.2,1181.3,701.3,1056.6z"/>
</g>
<path class="st14" d="M1092.7,458.2c-25.6,9.4-67.2,28.4-107.3,66.4c-49.5,47-71.2,98.7-80.4,125.9c-10.2,35.5-25.4,91.3-40.7,160.6
	c-21.7,98.2-23.8,133.6-38.7,191.3c-13.9,53.6-40.1,130.9-94.3,221.1c-24.4,42.1-57.6,88.9-103.3,133.8
	c-53.9,53-74.4,53.6-162.9,128.9c-53,45.1-51.8,50.1-127.1,116c-57.4,50.2-86.1,75.3-113.2,94.2c-46.4,32.3-125.6,74.6-251.3,89.2
	c-0.7,202.9-1.3,405.8-2,608.7c373.8,0,747.5,0,1121.3,0C1092.7,1748.8,1092.7,1103.5,1092.7,458.2z"/>
<g id="pokok_bulat_2nd_1_">
	<g>
		<path class="st15" d="M792.9,1407.5c-3.4-11-10.9-40.7,0-76.2c11.3-36.9,35.6-57.7,44.6-64.7c11.7-9.1,30.3-21,55.4-28.9
			c16.6-5.2,31.5-7.1,43.2-7.7c0.4-15.4,3.6-59,35.2-100.7c29.4-38.9,77.8-75.7,96-63.9c15.3,10-4.2,45.9,7.3,112
			c4.4,25.3,11.7,45.1,16.6,57.1c-9.5,19.9-19.9,40.4-31.2,61.4c-11.7,21.8-23.5,42.4-35.3,61.9c13.5,19.2,17.8,34.4,12.9,45.7
			C1024.3,1434.5,942.7,1435.7,792.9,1407.5z"/>
	</g>
	<path class="st16" d="M1084.5,1285.1c-14.4-9.8-28.7-19.5-43.1-29.3c-0.9-0.6-8.1-5.7-8.6-14.9c-0.5-7.3,3.5-12.4,4.5-13.6
		c3.4-2,9-4.5,15.6-3.9c6,0.6,10.2,3.5,12,4.7c7.7,5.2,20,12,40.3,21.6c-3.4-23.2-6.8-46.4-10.2-69.6c0.1-2.1,0.6-6.2,3.4-10.2
		c5.1-7.4,13.5-8.5,14.9-8.6c1.5-0.1,7.9-0.3,13.6,4.5c4.6,3.8,6,8.7,6.4,10.4c3.2,17.8,6.3,35.7,9.4,53.6
		c3.5,20.5,7.1,41,10.6,61.5C1130.3,1289.2,1107.4,1287.2,1084.5,1285.1z"/>
	<circle class="st16" cx="917.8" cy="1295.1" r="16.4"/>
	<circle class="st16" cx="1044.2" cy="1145.1" r="16.4"/>
</g>
<g id="pokok_bulat_1_">
	<g>
		<path class="st15" d="M219.9,1863.8c-1.3-8.3-3.5-30.4,8-54.7c12-25.3,31.6-37.7,38.8-41.8c9.4-5.3,23.9-11.9,42.7-14.9
			c12.4-2,23.3-1.8,31.8-1c1.9-11,8.8-41.9,35.8-68.6c29.9-29.5,64.9-34.6,75.6-35.8c14.9-1.5,51.7-3,88.5,18.9
			c17.1,10.2,29,22.3,36.8,31.8c-9.7,21.6-21.2,44.6-34.8,68.6c-17.8,31.3-36.1,58.7-53.7,82.5c-20.8,13.3-52.4,29.6-93.4,37.8
			C313.1,1903.3,245.8,1876,219.9,1863.8z"/>
	</g>
	<path class="st14" d="M441.9,1806.5c-9.3-8.5-18.6-17-27.8-25.5c-0.6-0.5-5.2-4.9-4.6-11.6c0.4-5.3,3.8-8.5,4.6-9.3
		c2.7-1.1,6.9-2.3,11.6-1.2c4.2,1,6.9,3.6,8.1,4.6c5,4.5,13.1,10.7,26.7,19.7c0-17,0-34,0-51c0.3-1.5,1.1-4.4,3.5-7
		c4.4-4.8,10.6-4.7,11.6-4.6c1.1,0.1,5.7,0.6,9.3,4.6c2.9,3.2,3.4,6.9,3.5,8.1c0.4,13.1,0.8,26.2,1.2,39.4
		c0.4,15.1,0.8,30.2,1.2,45.2C474.4,1814.3,458.1,1810.4,441.9,1806.5z"/>
	<circle class="st14" cx="321.3" cy="1796.2" r="11.9"/>
	<circle class="st14" cx="427.6" cy="1701.8" r="11.9"/>
</g>
<path class="st17" d="M1090.7,711.7c-17.1,4.8-49.5,16.3-79.4,44.8c-33.4,31.9-44.1,69.9-54.6,105.3c-5.6,18.9-9,41.2-15.9,85.8
	c-4.1,26.4-7.1,49.2-9.9,73.1c-11.2,94.2-7.5,97.4-15.9,150.1c-9.5,59.8-19.3,88.1-34.7,113.1c-5.8,9.4-14.8,23.8-30.8,39
	c-9.5,9-13.9,11.2-50.6,37c-30.3,21.4-35.9,26-39.7,29.2c-4.7,4-18.6,16.2-34.7,35.1c-26.1,30.6-39.6,57.5-64.5,103.3
	c-23.3,43-34.9,64.5-42.7,77c-26.2,41.9-54.7,86.8-105.2,128.7c-15,12.4-45.6,35.9-88.3,55.6c-68.9,31.7-127.4,34.1-179.6,38
	c-63.8,4.8-154.6,14.6-269.9,37c-0.7,167.7-1.3,335.3-2,503c373.4,0,746.8,0,1120.2,0C1092.1,1815.1,1091.4,1263.4,1090.7,711.7z"/>
<path class="st18" d="M1090.7,1371.8c-31,16-73,40.5-118.3,76.5c-32.4,25.7-60.2,47.9-88.5,84.5c-28.1,36.4-43.9,72.3-75.6,144.1
	c-19.9,45.3-23.5,59.4-41.8,92.5c-20,36.2-40.4,63.7-54.7,81.5c-22.1,23.1-48.7,47.3-80.5,70.6c-93,68.1-187.1,96.5-251.5,109.4
	c23.9-2.8,170.5-20.8,271.4-63.6c42.6-18.1,83.5-48.6,86.5-50.7c33.2-23.3,47.6-38.4,51.7-42.7c18.1-19.4,28.7-36.6,40.8-56.7
	c9.6-15.9,16.2-28.8,36.8-72.6c9.7-20.6,22.2-47.6,36.8-79.5c10.4-18.8,29.3-47.3,61.6-72.6c49.8-39,101.9-47.4,125.3-49.7
	C1090.7,1485.8,1090.7,1428.8,1090.7,1371.8z"/>
<path class="st17" d="M890.9,1033.8"/>
<g id="Kilang" class="st19">
	<g class="st20">
		<polygon class="st21" points="466.3,2186.8 466.3,2226.3 390.6,2226.3 390.6,2175.8 398.3,2175.8 398.3,2163.8 404.9,2163.8 
			404.9,2175.8 411.5,2175.8 411.5,2163.8 418,2163.8 418,2175.8 425.7,2175.8 425.7,2163.8 447.7,2163.8 447.7,2186.8 		"/>
		<g>
			<rect x="398.3" y="2181.3" width="8.8" height="9.9"/>
			<rect x="398.3" y="2194.5" width="8.8" height="9.9"/>
			<rect x="398.3" y="2207.7" width="8.8" height="9.9"/>
		</g>
		<g>
			<rect x="413.7" y="2181.3" width="8.8" height="9.9"/>
			<rect x="413.7" y="2194.5" width="8.8" height="9.9"/>
			<rect x="413.7" y="2207.7" width="8.8" height="9.9"/>
		</g>
		<g>
			<rect x="432.3" y="2169.3" width="8.8" height="9.9"/>
			<rect x="432.3" y="2182.4" width="8.8" height="9.9"/>
			<rect x="432.3" y="2195.6" width="8.8" height="9.9"/>
		</g>
		<rect x="452.1" y="2194.5" width="8.8" height="9.9"/>
	</g>
	<rect x="452.1" y="2207.7" class="st20" width="8.8" height="9.9"/>
</g>
<path id="setting" class="st22" d="M658,2203.1l-6.8-3.9c0.3-1.6,0.5-3.2,0.5-4.9c0-1.3-0.1-2.5-0.3-3.7l7.2-4.2
	c1.9-1.1,2.5-3.5,1.4-5.4l-6-10.4c-1.1-1.9-3.5-2.5-5.4-1.4l-7.2,4.2c-2.1-1.7-4.5-3-7-4v-7.2c0-2.2-1.8-3.9-3.9-3.9h-12
	c-2.2,0-3.9,1.8-3.9,3.9v7.7c-2.5,1.1-4.8,2.5-6.8,4.3l-7-4.1c-1.9-1.1-4.3-0.4-5.4,1.4l-6,10.4c-1.1,1.9-0.4,4.3,1.4,5.4l7.8,4.5
	c-0.1,0.8-0.1,1.7-0.1,2.5c0,1.3,0.1,2.5,0.3,3.7l-7.4,4.3c-1.9,1.1-2.5,3.5-1.4,5.4l6,10.4c1.1,1.9,3.5,2.5,5.4,1.4l7.4-4.3
	c1.8,1.4,3.8,2.6,5.9,3.5v9.6c0,2.2,1.8,3.9,3.9,3.9h12c2.2,0,3.9-1.8,3.9-3.9v-9.1c2.2-0.8,4.2-1.9,6.1-3.2l7.6,4.4
	c1.9,1.1,4.3,0.4,5.4-1.4l6-10.4C660.5,2206.6,659.9,2204.2,658,2203.1z M624.8,2206.9c-0.1,0-0.3,0-0.4,0c-0.4,0-0.8,0-1.2-0.1
	c-3.5-0.3-6.5-2.1-8.6-4.7c-0.5-0.6-0.9-1.2-1.3-1.9c-0.9-1.8-1.5-3.8-1.5-5.9c0-1.5,0.3-2.9,0.7-4.3c0.5-1.3,1.2-2.5,2-3.6
	c1.7-2.2,4.2-3.8,7-4.4c0.9-0.2,1.9-0.3,2.9-0.3c0.8,0,1.5,0.1,2.2,0.2c3.2,0.6,5.9,2.3,7.8,4.8c0.9,1.2,1.6,2.5,2,4
	c0.3,1.1,0.5,2.4,0.5,3.6c0,1.9-0.4,3.6-1.1,5.2c-0.4,0.9-0.9,1.7-1.5,2.4C632.1,2204.9,628.7,2206.8,624.8,2206.9z"/>
<rect id="grey_bawah" x="352.2" y="2290" class="st23" width="356.6" height="15.4"/>
</svg>
